<?xml version="1.0" encoding="utf-8"?>
<!-- Generator: Adobe Illustrator 19.2.1, SVG Export Plug-In . SVG Version: 6.00 Build 0)  -->
<svg version="1.1" id="Layer_2" xmlns="http://www.w3.org/2000/svg" xmlns:xlink="http://www.w3.org/1999/xlink" x="0px" y="0px"
	 width="500px" height="150px" viewBox="0 0 500 150" style="enable-background:new 0 0 500 150;" xml:space="preserve">
<style type="text/css">
	.st0{fill:#808080;}
</style>
<path class="st0" d="M25,31.772L13.845,20.616c-0.546-0.546-0.546-1.432,0-1.978c0.546-0.546,1.432-0.546,1.978,0L25,27.814
	l9.177-9.176c0.546-0.546,1.432-0.546,1.978,0c0.546,0.546,0.546,1.432,0,1.978L25,31.772z"/>
<circle class="st0" cx="125" cy="25" r="13"/>
<path class="st0" d="M70.093,38.75c-0.528,0-1.038-0.209-1.414-0.586l-8.433-8.433c-0.781-0.781-0.781-2.047,0-2.828
	c0.78-0.781,2.048-0.781,2.828,0l6.786,6.786L86.338,11.26c0.654-0.891,1.907-1.082,2.796-0.428c0.89,0.654,1.082,1.906,0.428,2.796
	L71.705,37.934c-0.345,0.47-0.878,0.766-1.46,0.81C70.194,38.748,70.143,38.75,70.093,38.75z"/>
</svg>
